<svg width="20" height="25" viewBox="0 0 20 25" fill="none" xmlns="http://www.w3.org/2000/svg">
<path fill-rule="evenodd" clip-rule="evenodd" d="M1.27972 12.464V23.4924C1.27972 23.6691 1.4225 23.8148 1.59755 23.8148H6.67061H14.1808H15.26H19.6822C19.8572 23.8148 20 23.6691 20 23.4924V18.311V3.99812V3.84891H16.7709C16.4599 3.84891 15.8141 3.8935 15.8141 3.18175L15.8072 0.00012207H1.59749C1.42245 0.00012207 1.27966 0.144192 1.27966 0.320874V3.07368V4.23828V12.464H1.27972Z" fill="white"/>
<path fill-rule="evenodd" clip-rule="evenodd" d="M19.9999 18.311V3.99812V3.84891V3.79917C19.9999 3.70654 19.9608 3.69111 19.8198 3.55218L16.3341 0.197377C16.1692 0.0395731 16.1421 0.00012207 16.0452 0.00012207H15.8072H1.59749C1.42245 0.00012207 1.27966 0.144192 1.27966 0.320874V23.4924C1.27966 23.6691 1.42245 23.8148 1.59749 23.8148H19.6821C19.8572 23.8148 19.9999 23.6691 19.9999 23.4924V18.311Z" fill="#EDF3F4"/>
<path fill-rule="evenodd" clip-rule="evenodd" d="M1.27972 3.07362L0 3.2949V24.6776C0 24.8559 0.142783 25 0.31783 25H5.39089H8.40926L13.1985 24.1716L15.26 23.8148H14.1808H12.8535H6.6706H1.59755C1.4225 23.8148 1.27972 23.6691 1.27972 23.4924C1.27972 16.6866 1.27972 9.87926 1.27972 3.07362V3.07362Z" fill="#B5C4CF"/>
<path fill-rule="evenodd" clip-rule="evenodd" d="M19.9999 18.311V3.99812V3.84891C19.9999 3.67568 19.9439 3.67398 19.8198 3.55218L16.3341 0.197377C16.1692 0.0395731 16.1421 0.00012207 16.0452 0.00012207H15.8072H12.2705C16.5924 5.83847 16.8388 16.3626 13.6318 22.9315C13.4839 23.2369 13.3293 23.5301 13.1678 23.8148H14.1808H15.2599H19.6821C19.8572 23.8148 19.9999 23.6691 19.9999 23.4924V18.311Z" fill="#D7E7EC"/>
<path fill-rule="evenodd" clip-rule="evenodd" d="M15.814 3.18163C15.814 3.89338 16.4598 3.84879 16.7708 3.84879H19.9999V3.79905C19.9999 3.70641 19.9608 3.69098 19.8198 3.55206L16.3341 0.197255C16.1692 0.0394511 16.1421 0 16.0452 0H15.8072L15.814 3.18163Z" fill="white"/>
<path fill-rule="evenodd" clip-rule="evenodd" d="M19.8198 3.55218L16.3341 0.197377C16.1692 0.0395731 16.1421 0.00012207 16.0452 0.00012207H15.8072L15.814 3.18169C15.814 3.89345 16.4598 3.84885 16.7708 3.84885H19.9999V3.79911C19.9999 3.70654 19.9608 3.69111 19.8198 3.55218Z" fill="#B5C4CF"/>
<path d="M17.1277 7.01393H4.33204C4.08488 7.01393 3.88452 6.81171 3.88452 6.5622C3.88452 6.3127 4.08488 6.11047 4.33204 6.11047H17.1277C17.3749 6.11047 17.5752 6.3127 17.5752 6.5622C17.5752 6.81171 17.3749 7.01393 17.1277 7.01393Z" fill="#9AAFB7"/>
<path d="M17.1277 10.2229H4.33204C4.08488 10.2229 3.88452 10.0207 3.88452 9.77119C3.88452 9.52168 4.08488 9.31946 4.33204 9.31946H17.1277C17.3749 9.31946 17.5752 9.52168 17.5752 9.77119C17.5752 10.0207 17.3749 10.2229 17.1277 10.2229Z" fill="#9AAFB7"/>
<path d="M17.1277 13.4319H4.33204C4.08488 13.4319 3.88452 13.2297 3.88452 12.9802C3.88452 12.7307 4.08488 12.5285 4.33204 12.5285H17.1277C17.3749 12.5285 17.5752 12.7307 17.5752 12.9802C17.5752 13.2297 17.3749 13.4319 17.1277 13.4319Z" fill="#9AAFB7"/>
<path d="M17.1277 16.641H4.33204C4.08488 16.641 3.88452 16.4388 3.88452 16.1893C3.88452 15.9398 4.08488 15.7375 4.33204 15.7375H17.1277C17.3749 15.7375 17.5752 15.9398 17.5752 16.1893C17.5752 16.4388 17.3749 16.641 17.1277 16.641Z" fill="#9AAFB7"/>
<path d="M17.1277 19.85H4.33204C4.08488 19.85 3.88452 19.6478 3.88452 19.3983C3.88452 19.1488 4.08488 18.9466 4.33204 18.9466H17.1277C17.3749 18.9466 17.5752 19.1488 17.5752 19.3983C17.5752 19.6478 17.3749 19.85 17.1277 19.85Z" fill="#9AAFB7"/>
</svg>
